<svg xmlns="http://www.w3.org/2000/svg" xmlns:xlink="http://www.w3.org/1999/xlink" viewBox="0 0 257.55 36.72"><defs><style>.cls-1{fill:none;}.cls-2{clip-path:url(#clip-path);}.cls-3{fill:#004aad;}.cls-4{clip-path:url(#clip-path-2);}.cls-5{fill:#38b6ff;}</style><clipPath id="clip-path" transform="translate(0 -0.02)"><rect class="cls-1" width="24.55" height="24.24"/></clipPath><clipPath id="clip-path-2" transform="translate(0 -0.02)"><rect class="cls-1" x="8.55" y="12.04" width="24.15" height="24.71"/></clipPath></defs><g id="Layer_2" data-name="Layer 2"><g id="Layer_1-2" data-name="Layer 1"><g class="cls-2"><path class="cls-3" d="M.91,23.13H19.44l0-6.64a1.19,1.19,0,0,1,.67-1.07,1.24,1.24,0,0,1,1.26.12,2,2,0,0,0,1.19.41,1,1,0,0,0,1-1V13.83a1,1,0,0,0-1-1,1.93,1.93,0,0,0-1.19.41,1.22,1.22,0,0,1-1.26.12,1.17,1.17,0,0,1-.67-1.07l0-7.14-.13-.08-7.14,0a1.19,1.19,0,0,1-1.07-.67,1.21,1.21,0,0,1,.13-1.28,2,2,0,0,0,.4-1.18,1,1,0,0,0-1-1H9.51a1,1,0,0,0-1,1,2,2,0,0,0,.4,1.19,1.24,1.24,0,0,1,.13,1.27A1.21,1.21,0,0,1,8,5.05H1l0,7a3.31,3.31,0,0,1,1.82-.56A2.3,2.3,0,0,1,5,13.78v1.13a2.29,2.29,0,0,1-2.29,2.28,3.31,3.31,0,0,1-1.82-.56Zm19,.91H.45a.48.48,0,0,1-.32-.13A.49.49,0,0,1,0,23.58v-7.2a.83.83,0,0,1,.45-.67.82.82,0,0,1,.85.09,2.35,2.35,0,0,0,1.42.49,1.38,1.38,0,0,0,1.38-1.38V13.78A1.38,1.38,0,0,0,2.73,12.4a2.29,2.29,0,0,0-1.42.49A.87.87,0,0,1,.46,13,.8.8,0,0,1,0,12.39a.77.77,0,0,1,0-.15V5.1a1,1,0,0,1,1-.95H8A.3.3,0,0,0,8.23,4a.29.29,0,0,0,0-.31,2.86,2.86,0,0,1-.59-1.74A1.9,1.9,0,0,1,9.51,0h1.12a1.9,1.9,0,0,1,1.9,1.9,3,3,0,0,1-.59,1.75.26.26,0,0,0,0,.3.3.3,0,0,0,.27.17l7.13,0a.86.86,0,0,1,.41.1.91.91,0,0,1,.62.88l0,7.14a.29.29,0,0,0,.16.27.32.32,0,0,0,.3,0,2.9,2.9,0,0,1,1.75-.6,1.91,1.91,0,0,1,1.9,1.9V15a1.9,1.9,0,0,1-1.9,1.9,3,3,0,0,1-1.75-.59.29.29,0,0,0-.3,0,.32.32,0,0,0-.16.27l0,7.09a.45.45,0,0,1-.45.45" transform="translate(0 -0.02)"/></g><g class="cls-4"><path class="cls-3" d="M18.9,36.73H17.78a1.89,1.89,0,0,1-1.9-1.9,2.9,2.9,0,0,1,.6-1.75.25.25,0,0,0,.06-.17.28.28,0,0,0,0-.13.31.31,0,0,0-.27-.17H9.17a.46.46,0,0,1-.46-.45V25.23a.46.46,0,0,1,.46-.45.45.45,0,0,1,.45.45v6.46l6.62,0a1.19,1.19,0,0,1,1.2,1.2,1.27,1.27,0,0,1-.24.73,2,2,0,0,0-.41,1.19,1,1,0,0,0,1,1H18.9a1,1,0,0,0,1-1,2,2,0,0,0-.41-1.19,1.25,1.25,0,0,1-.13-1.26,1.19,1.19,0,0,1,1.08-.67l7.13,0a1.48,1.48,0,0,1,.08-.13l0-7.15a1.21,1.21,0,0,1,.67-1.08,1.2,1.2,0,0,1,1.26.13,2,2,0,0,0,1.19.4,1,1,0,0,0,1-1V21.74a1,1,0,0,0-1-1,2,2,0,0,0-1.19.41,1.2,1.2,0,0,1-1.93-.95l0-7-2.45,0a.46.46,0,0,1,0-.92h2.42a1,1,0,0,1,.94.95l0,7a.29.29,0,0,0,.16.26.32.32,0,0,0,.31,0,2.86,2.86,0,0,1,1.74-.59,1.9,1.9,0,0,1,1.9,1.9v1.12a1.91,1.91,0,0,1-1.9,1.91,2.91,2.91,0,0,1-1.74-.6.29.29,0,0,0-.47.23l0,7.15a.86.86,0,0,1-.1.41.91.91,0,0,1-.88.62l-7.13,0a.3.3,0,0,0-.26.17.31.31,0,0,0,0,.3,3,3,0,0,1,.59,1.75,1.89,1.89,0,0,1-1.9,1.9" transform="translate(0 -0.02)"/></g><path class="cls-5" d="M47.09,29.83a12.16,12.16,0,0,1-4.21-.67A11.06,11.06,0,0,1,39.38,27a1.73,1.73,0,0,1-.69-1.34,1.49,1.49,0,0,1,.46-1.06,1.42,1.42,0,0,1,1.07-.48,1.39,1.39,0,0,1,1,.35,9.45,9.45,0,0,0,2.69,1.8,8.53,8.53,0,0,0,3.17.56,6.15,6.15,0,0,0,3.48-.94,2.79,2.79,0,0,0,1.43-2.39,3.08,3.08,0,0,0-1.43-2.63,12.84,12.84,0,0,0-4.23-1.56A11.35,11.35,0,0,1,41.09,17a5.47,5.47,0,0,1-1.81-4.36,5.73,5.73,0,0,1,1-3.37,6.52,6.52,0,0,1,2.81-2.25,10,10,0,0,1,4.06-.79A11.07,11.07,0,0,1,51,6.93,8.27,8.27,0,0,1,53.9,8.66a1.85,1.85,0,0,1,.75,1.4,1.43,1.43,0,0,1-.46,1.06,1.38,1.38,0,0,1-1,.46,1.15,1.15,0,0,1-.77-.27A6.55,6.55,0,0,0,50,9.87a8.12,8.12,0,0,0-2.88-.58,6.06,6.06,0,0,0-3.48.89,2.77,2.77,0,0,0-1.29,2.38A2.77,2.77,0,0,0,43.67,15a12.8,12.8,0,0,0,3.86,1.43,20.14,20.14,0,0,1,4.14,1.3,5.72,5.72,0,0,1,2.5,2.1,6.16,6.16,0,0,1,.9,3.5A5.64,5.64,0,0,1,54,26.73,7.25,7.25,0,0,1,51.11,29,9.82,9.82,0,0,1,47.09,29.83Z" transform="translate(0 -0.02)"/><path class="cls-5" d="M63.44,15.39v9.75c0,1.1.49,1.65,1.48,1.65a2.18,2.18,0,0,0,.62-.11,2.33,2.33,0,0,1,.63-.12.91.91,0,0,1,.71.35,1.43,1.43,0,0,1,.29.92A1.44,1.44,0,0,1,66.38,29a3.26,3.26,0,0,1-1.75.48,8,8,0,0,1-2-.23A2.92,2.92,0,0,1,61,28.12a4.71,4.71,0,0,1-.7-2.85V15.39h-1.9A1.36,1.36,0,0,1,57,14a1.3,1.3,0,0,1,.4-1,1.44,1.44,0,0,1,1-.39h1.9V9.81a1.51,1.51,0,0,1,1.58-1.58A1.44,1.44,0,0,1,63,8.68a1.6,1.6,0,0,1,.44,1.13v2.75h2.73a1.34,1.34,0,0,1,1,.42,1.33,1.33,0,0,1,.42,1,1.34,1.34,0,0,1-.42,1,1.42,1.42,0,0,1-1,.37Z" transform="translate(0 -0.02)"/><path class="cls-5" d="M84,12.35a1.51,1.51,0,0,1,1.12.46,1.58,1.58,0,0,1,.44,1.12v8.69a7.15,7.15,0,0,1-1.88,5.29,7.18,7.18,0,0,1-5.31,1.88,7.15,7.15,0,0,1-5.29-1.88,7.18,7.18,0,0,1-1.86-5.29V13.93a1.58,1.58,0,0,1,.44-1.12,1.58,1.58,0,0,1,2.23,0,1.56,1.56,0,0,1,.46,1.12v8.69c0,2.87,1.34,4.29,4,4.29a4,4,0,0,0,3-1.08,4.47,4.47,0,0,0,1-3.21V13.93a1.58,1.58,0,0,1,.44-1.12A1.48,1.48,0,0,1,84,12.35Z" transform="translate(0 -0.02)"/><path class="cls-5" d="M104.11,5.29a1.48,1.48,0,0,1,1.13.46,1.51,1.51,0,0,1,.44,1.12V27.93a1.54,1.54,0,0,1-.44,1.11,1.51,1.51,0,0,1-1.13.46,1.53,1.53,0,0,1-1.12-.44,1.56,1.56,0,0,1-.42-1.13V27a6.73,6.73,0,0,1-2.31,2,6.55,6.55,0,0,1-3.19.81,7.24,7.24,0,0,1-4-1.15A8.08,8.08,0,0,1,90.2,25.5a9.93,9.93,0,0,1-1-4.61,10,10,0,0,1,1-4.58A7.91,7.91,0,0,1,93,13.1,7.31,7.31,0,0,1,97,12a7.2,7.2,0,0,1,3.21.73,7.07,7.07,0,0,1,2.39,1.88V6.87A1.54,1.54,0,0,1,103,5.75,1.47,1.47,0,0,1,104.11,5.29ZM97.43,27a4.83,4.83,0,0,0,2.73-.79A5.33,5.33,0,0,0,102,24a7.48,7.48,0,0,0,0-6.19,5.23,5.23,0,0,0-1.87-2.17,5.11,5.11,0,0,0-5.46,0,5.28,5.28,0,0,0-1.86,2.17,6.92,6.92,0,0,0-.66,3.08A7,7,0,0,0,92.84,24a5.38,5.38,0,0,0,1.86,2.16A4.83,4.83,0,0,0,97.43,27Z" transform="translate(0 -0.02)"/><path class="cls-5" d="M125.34,20.27a1.47,1.47,0,0,1-.5,1,1.59,1.59,0,0,1-1.08.39h-11.5a5.77,5.77,0,0,0,1.81,3.84A5.56,5.56,0,0,0,118,27a6.15,6.15,0,0,0,2.54-.45,6.77,6.77,0,0,0,1.75-1.19,1.84,1.84,0,0,1,.94-.29,1.24,1.24,0,0,1,.93.39,1.33,1.33,0,0,1,.38.92,1.55,1.55,0,0,1-.67,1.23,7.51,7.51,0,0,1-2.52,1.62,8.27,8.27,0,0,1-3.19.65,9.61,9.61,0,0,1-4.66-1.1,7.92,7.92,0,0,1-3.13-3.13,9.3,9.3,0,0,1-1.08-4.5,10,10,0,0,1,1.12-4.83,8.36,8.36,0,0,1,3-3.19,7.58,7.58,0,0,1,7.9,0,8.24,8.24,0,0,1,2.94,3A8.48,8.48,0,0,1,125.34,20.27Zm-8-5.42a5.08,5.08,0,0,0-3.18,1,5,5,0,0,0-1.75,3.17H122v-.25A4,4,0,0,0,120.47,16,4.93,4.93,0,0,0,117.32,14.85Z" transform="translate(0 -0.02)"/><path class="cls-5" d="M137.68,12q5.87,0,5.87,7.09v8.89a1.55,1.55,0,1,1-3.1,0V19.06a4.8,4.8,0,0,0-.9-3.06,3.36,3.36,0,0,0-2.85-1.15,5,5,0,0,0-2.38.58A4.36,4.36,0,0,0,132.66,17a3.84,3.84,0,0,0-.61,2.11v8.87a1.57,1.57,0,0,1-1.58,1.57,1.46,1.46,0,0,1-1.54-1.57v-14a1.57,1.57,0,0,1,.43-1.12,1.55,1.55,0,0,1,1.11-.46,1.49,1.49,0,0,1,1.12.46,1.52,1.52,0,0,1,.46,1.12v1.15a6.72,6.72,0,0,1,2.36-2.21A6.22,6.22,0,0,1,137.68,12Z" transform="translate(0 -0.02)"/><path class="cls-5" d="M152.84,15.39v9.75c0,1.1.49,1.65,1.48,1.65a2.18,2.18,0,0,0,.62-.11,2.26,2.26,0,0,1,.63-.12.92.92,0,0,1,.71.35,1.43,1.43,0,0,1,.29.92,1.44,1.44,0,0,1-.79,1.19,3.26,3.26,0,0,1-1.75.48,8,8,0,0,1-2-.23,2.92,2.92,0,0,1-1.61-1.15,4.71,4.71,0,0,1-.7-2.85V15.39h-1.9A1.36,1.36,0,0,1,146.4,14a1.3,1.3,0,0,1,.4-1,1.44,1.44,0,0,1,1-.39h1.9V9.81a1.6,1.6,0,0,1,.43-1.13,1.57,1.57,0,0,1,1.15-.45,1.44,1.44,0,0,1,1.08.45,1.6,1.6,0,0,1,.44,1.13v2.75h2.73a1.34,1.34,0,0,1,1,.42,1.33,1.33,0,0,1,.42,1,1.34,1.34,0,0,1-.42,1,1.42,1.42,0,0,1-1,.37Z" transform="translate(0 -0.02)"/><path class="cls-3" d="M175.86,6.6A1.56,1.56,0,0,1,177,7a1.38,1.38,0,0,1,.44,1.08A1.38,1.38,0,0,1,177,9.18a1.59,1.59,0,0,1-1.13.4h-5.81V27.93a1.46,1.46,0,0,1-.48,1.11,1.78,1.78,0,0,1-2.39,0,1.43,1.43,0,0,1-.48-1.11V9.58h-5.77a1.66,1.66,0,0,1-1.15-.4,1.44,1.44,0,0,1-.44-1.1A1.37,1.37,0,0,1,159.78,7a1.63,1.63,0,0,1,1.15-.42Z" transform="translate(0 -0.02)"/><path class="cls-3" d="M193.57,12.35a1.49,1.49,0,0,1,1.12.46,1.58,1.58,0,0,1,.44,1.12v8.69a7.15,7.15,0,0,1-1.88,5.29,8.41,8.41,0,0,1-10.6,0,7.18,7.18,0,0,1-1.85-5.29V13.93a1.57,1.57,0,0,1,.43-1.12,1.55,1.55,0,0,1,1.11-.46,1.49,1.49,0,0,1,1.12.46,1.52,1.52,0,0,1,.46,1.12v8.69c0,2.87,1.34,4.29,4,4.29a4,4,0,0,0,3-1.08A4.43,4.43,0,0,0,192,22.62V13.93a1.57,1.57,0,0,1,.43-1.12A1.48,1.48,0,0,1,193.57,12.35Z" transform="translate(0 -0.02)"/><path class="cls-3" d="M204.41,15.39v9.75c0,1.1.49,1.65,1.48,1.65a2.3,2.3,0,0,0,.63-.11,2.27,2.27,0,0,1,.62-.12.91.91,0,0,1,.71.35,1.39,1.39,0,0,1-.5,2.11,3.24,3.24,0,0,1-1.75.48,8.15,8.15,0,0,1-2-.23,2.9,2.9,0,0,1-1.6-1.15,4.64,4.64,0,0,1-.71-2.85V15.39h-1.9A1.34,1.34,0,0,1,198,14a1.33,1.33,0,0,1,.39-1,1.48,1.48,0,0,1,1-.39h1.9V9.81a1.6,1.6,0,0,1,.44-1.13,1.56,1.56,0,0,1,1.14-.45,1.46,1.46,0,0,1,1.09.45,1.6,1.6,0,0,1,.43,1.13v2.75h2.73A1.43,1.43,0,0,1,208.58,14a1.34,1.34,0,0,1-.42,1,1.41,1.41,0,0,1-1,.37Z" transform="translate(0 -0.02)"/><path class="cls-3" d="M228.43,20.93a9.25,9.25,0,0,1-1.15,4.59,8.31,8.31,0,0,1-3.12,3.16,8.86,8.86,0,0,1-8.73,0,8.26,8.26,0,0,1-3.13-3.16,9.25,9.25,0,0,1-1.14-4.59,9.39,9.39,0,0,1,1.14-4.62,8.26,8.26,0,0,1,3.13-3.21,8.86,8.86,0,0,1,8.73,0,8.3,8.3,0,0,1,3.12,3.21A9.39,9.39,0,0,1,228.43,20.93Zm-3.11,0a6.59,6.59,0,0,0-.75-3.16,5.29,5.29,0,0,0-2-2.15,5.23,5.23,0,0,0-2.79-.77,5.32,5.32,0,0,0-2.81.77,5.47,5.47,0,0,0-2,2.15,6.69,6.69,0,0,0-.73,3.16A6.49,6.49,0,0,0,215,24a5.66,5.66,0,0,0,2,2.14,5.23,5.23,0,0,0,2.81.77,5.14,5.14,0,0,0,2.79-.77,5.46,5.46,0,0,0,2-2.14A6.39,6.39,0,0,0,225.32,20.93Z" transform="translate(0 -0.02)"/><path class="cls-3" d="M240.56,12a2.46,2.46,0,0,1,1.48.46,1.3,1.3,0,0,1,.63,1.09,1.59,1.59,0,0,1-.42,1.2,1.38,1.38,0,0,1-1,.4,2.91,2.91,0,0,1-.87-.19,3.85,3.85,0,0,0-1.09-.23,3.31,3.31,0,0,0-2,.71,5,5,0,0,0-1.56,1.92,6,6,0,0,0-.6,2.73v7.89a1.61,1.61,0,0,1-2.71,1.13,1.56,1.56,0,0,1-.42-1.13v-14a1.58,1.58,0,0,1,.44-1.12,1.58,1.58,0,0,1,2.23,0,1.56,1.56,0,0,1,.46,1.12V15.6a6,6,0,0,1,2.14-2.6A5.91,5.91,0,0,1,240.56,12Z" transform="translate(0 -0.02)"/><path class="cls-3" d="M244.55,26.81a1.59,1.59,0,0,1-.29-.88,1.33,1.33,0,0,1,.69-1.12,1.3,1.3,0,0,1,.75-.23,1.48,1.48,0,0,1,1.08.5,7.06,7.06,0,0,0,2.11,1.67,6.11,6.11,0,0,0,2.7.56,4.62,4.62,0,0,0,2.19-.58,2,2,0,0,0,0-3.44A10.74,10.74,0,0,0,251,22.2a22.69,22.69,0,0,1-3.06-1,5.52,5.52,0,0,1-2-1.56,4.21,4.21,0,0,1-.83-2.71,4.21,4.21,0,0,1,.83-2.58,5.58,5.58,0,0,1,2.23-1.75,7.26,7.26,0,0,1,3-.63,8.58,8.58,0,0,1,3.13.61,5.91,5.91,0,0,1,2.54,1.79,1.5,1.5,0,0,1,.4,1,1.39,1.39,0,0,1-.52,1,1.21,1.21,0,0,1-.84.29,1.24,1.24,0,0,1-.94-.37A4.45,4.45,0,0,0,253.18,15a5.52,5.52,0,0,0-2.21-.44,4.2,4.2,0,0,0-2.13.52,1.82,1.82,0,0,0-.85,1.71,2,2,0,0,0,1,1.71,12.67,12.67,0,0,0,3,1.06,17.44,17.44,0,0,1,2.87,1,5.17,5.17,0,0,1,1.94,1.54,4.26,4.26,0,0,1,.79,2.69,4.27,4.27,0,0,1-.89,2.69,5.74,5.74,0,0,1-2.32,1.73,7.64,7.64,0,0,1-3,.6,10.13,10.13,0,0,1-3.81-.71A7,7,0,0,1,244.55,26.81Z" transform="translate(0 -0.02)"/></g></g></svg>